<?xml version="1.0" encoding="UTF-8"?>
<svg version="1.1" xmlns="http://www.w3.org/2000/svg" width="697" height="578">
<path d="M0 0 C1.84398376 0.27350533 1.84398376 0.27350533 3.72521973 0.55253601 C7.79420393 1.15912561 11.8615624 1.77565494 15.9284668 2.39599609 C16.62873985 2.50263942 17.3290129 2.60928275 18.05050635 2.7191577 C24.70726721 3.73331103 31.36325764 4.75238291 38.01745319 5.78324318 C45.65419002 6.96605377 53.29233129 8.13565719 60.93701172 9.26611328 C94.61447729 14.25341216 127.09742899 19.76058479 159.16061401 31.68048096 C165.83406714 34.15178861 172.61189792 36.29680563 179.38549805 38.47412109 C181.77450214 39.25613533 184.16294048 40.03988024 186.55078125 40.82543945 C194.13447477 43.31543444 201.7188829 45.80324612 209.3034668 48.29052734 C209.94537901 48.50104548 210.58729122 48.71156361 211.24865532 48.92846107 C223.74328345 53.02605839 236.23909973 57.12001336 248.73773193 61.2053833 C250.79404713 61.87765787 252.85024471 62.55029232 254.90631104 63.22332764 C256.83026467 63.85305294 258.75439739 64.48223142 260.6787262 65.11080933 C262.48075008 65.69961426 264.28231239 66.28983411 266.08335876 66.88162231 C270.13599932 68.20710106 274.19189651 69.4927907 278.28759766 70.67919922 C279.02153244 70.89524307 279.75546722 71.11128693 280.51164246 71.33387756 C282.45280108 71.9003056 284.39894135 72.44958588 286.34545898 72.99731445 C292.00823861 75.2786572 295.04850635 79.48213574 298.56518555 84.29443359 C300.05674758 86.13463842 301.55688885 87.96791993 303.06518555 89.79443359 C303.79995117 90.70580078 304.5347168 91.61716797 305.29174805 92.55615234 C308.2646475 96.13691269 311.41972114 99.52977672 314.61987305 102.90771484 C318.79216184 108.0267278 320.40487759 113.73635098 321.99780273 120.00830078 C322.33272232 121.29296234 322.33272232 121.29296234 322.67440796 122.60357666 C323.40995095 125.43122199 324.13597518 128.26122138 324.86206055 131.09130859 C325.3784671 133.08327096 325.89550719 135.07506918 326.41314697 137.06671143 C327.77751757 142.32250972 329.13401495 147.58030762 330.48864746 152.83862305 C332.10945969 159.12510523 333.73845619 165.40946986 335.3673172 171.69387054 C336.6756682 176.74183866 337.9822096 181.79025334 339.28381348 186.83996582 C341.44149586 195.19965971 343.60926832 203.55351941 345.92651367 211.87060547 C346.26531555 213.09257629 346.60411743 214.31454712 346.95318604 215.57354736 C347.55465367 217.72415634 348.16539206 219.87220764 348.7880249 222.01678467 C349.17126923 223.38446991 349.17126923 223.38446991 349.56225586 224.77978516 C349.89305145 225.92329437 349.89305145 225.92329437 350.23052979 227.08990479 C350.63653904 229.76447128 350.33006774 231.70818741 349.56518555 234.29443359 C347.61352539 235.84912109 347.61352539 235.84912109 345.02612305 237.16943359 C344.06544922 237.67265137 343.10477539 238.17586914 342.11499023 238.69433594 C341.06730469 239.22236816 340.01961914 239.75040039 338.94018555 240.29443359 C336.7229414 241.45118496 334.50682084 242.6100922 332.29174805 243.77099609 C330.59840332 244.65126465 330.59840332 244.65126465 328.87084961 245.54931641 C323.95445123 248.14476808 319.13656473 250.90266301 314.31518555 253.66943359 C305.21616863 258.85806406 296.01191141 263.83373689 286.76501465 268.75189209 C278.80111219 272.99034191 270.89967187 277.32073254 263.06518555 281.79443359 C254.04934065 286.94272196 244.92945749 291.87773488 235.76391602 296.75244141 C227.80038121 300.99071299 219.89935894 305.32101104 212.06518555 309.79443359 C203.53443953 314.66473595 194.92086224 319.36246514 186.25268555 323.98193359 C176.49831598 329.18121122 166.79615156 334.45905081 157.14868164 339.85400391 C151.58806461 342.95432903 146.01389489 346.03022803 140.44018555 349.10693359 C139.81825317 349.45031769 139.1963208 349.79370178 138.55554199 350.14749146 C130.0169577 354.86008955 121.45868379 359.53437599 112.87768555 364.16943359 C106.15067784 367.80314797 99.43414004 371.45255208 92.75268555 375.16943359 C92.06585693 375.54994873 91.37902832 375.93046387 90.67138672 376.32250977 C86.57664456 378.59685341 82.49990996 380.90025144 78.4356842 383.22875977 C75.97217898 384.63744432 73.50310246 386.03619247 71.03335571 387.43389893 C69.81135973 388.12873122 68.59189272 388.82803146 67.37509155 389.53192139 C65.66623422 390.51994318 63.94789869 391.49151593 62.22924805 392.46240234 C60.73578857 393.31741333 60.73578857 393.31741333 59.2121582 394.18969727 C56.56518555 395.29443359 56.56518555 395.29443359 54.44604492 395.38696289 C51.4120732 393.62462859 50.291894 390.69604632 48.80737305 387.64599609 C48.29053703 386.62665985 48.29053703 386.62665985 47.76325989 385.58673096 C46.64285425 383.37044572 45.54173476 381.14514193 44.44018555 378.91943359 C43.6705973 377.39020016 42.89951471 375.86171785 42.12695312 374.33398438 C40.60927497 371.33063364 39.09734913 368.32450906 37.59008789 365.31591797 C35.20604945 360.56744917 32.74703621 355.86078814 30.25268555 351.16943359 C29.4827801 349.7139023 28.71324853 348.25817318 27.9440918 346.80224609 C27.37198975 345.71991699 27.37198975 345.71991699 26.78833008 344.61572266 C24.4084584 340.09919174 22.05025734 335.57133286 19.69018555 331.04443359 C18.93547974 329.59689697 18.93547974 329.59689697 18.16552734 328.12011719 C17.14273233 326.15808724 16.12002774 324.19601016 15.09741211 322.23388672 C12.58810647 317.41998617 10.07657529 312.60724711 7.56518555 307.79443359 C4.54060899 301.99815168 1.51655469 296.2016003 -1.50512695 290.40380859 C-6.11149142 281.56716938 -10.72368107 272.7339214 -15.37231445 263.91943359 C-19.8229707 255.48033936 -24.22367587 247.01565297 -28.62036133 238.54833984 C-31.85182192 232.32844272 -35.09975345 226.11779416 -38.37231445 219.91943359 C-42.43103781 212.23063093 -46.43750735 204.51532556 -50.43481445 196.79443359 C-54.84511985 188.27614926 -59.2751492 179.76928466 -63.75170898 171.28564453 C-68.49977103 162.28463405 -73.19924982 153.25832332 -77.90258789 144.23388672 C-80.90682457 138.47050086 -83.91380096 132.70854355 -86.92114258 126.94677734 C-89.4991527 122.00699911 -92.07454065 117.06587953 -94.64575195 112.12255859 C-95.17555664 111.10484375 -95.70536133 110.08712891 -96.2512207 109.03857422 C-97.25209091 107.11584987 -98.25216019 105.19270827 -99.2512207 103.26904297 C-99.71141602 102.38539062 -100.17161133 101.50173828 -100.64575195 100.59130859 C-101.09402344 99.72699219 -101.54229492 98.86267578 -102.00415039 97.97216797 C-103.02061474 96.06967974 -104.07494038 94.1872084 -105.15454102 92.31982422 C-105.9932373 90.86092773 -105.9932373 90.86092773 -106.84887695 89.37255859 C-107.36659668 88.4950293 -107.88431641 87.6175 -108.41772461 86.71337891 C-109.43481445 84.29443359 -109.43481445 84.29443359 -109.24902344 82.15014648 C-107.865433 78.99672192 -105.31752309 76.83160294 -102.87231445 74.48193359 C-102.37151367 73.98628906 -101.87071289 73.49064453 -101.35473633 72.97998047 C-97.84532382 69.54137578 -94.18228525 66.30594423 -90.47216797 63.08666992 C-87.13552568 60.15146428 -83.9136863 57.09710507 -80.68481445 54.04443359 C-74.99374541 48.68568975 -69.26577997 43.37413481 -63.4934082 38.10302734 C-59.9501858 34.85887021 -56.4431764 31.57619262 -52.93481445 28.29443359 C-47.46062277 23.17489029 -41.9705814 18.07559885 -36.41137695 13.04833984 C-34.24215307 11.0699206 -32.1541468 9.02777122 -30.08325195 6.94677734 C-29.51622559 6.39006348 -28.94919922 5.83334961 -28.36499023 5.25976562 C-27.27704846 4.18952938 -26.20387911 3.10397768 -25.14916992 2.00097656 C-18.3935551 -4.56255616 -8.47974849 -1.28874849 0 0 Z " fill="#E0A840" transform="translate(109.434814453125,1.70556640625)"/>
<path d="M0 0 C0.66 0 1.32 0 2 0 C3.26953125 1.44140625 3.26953125 1.44140625 4.8125 3.5625 C8.12600065 7.95064951 11.63403992 12.11211061 15.25 16.25 C20.37546247 22.12277176 25.44272328 28.03865762 30.46484375 34 C31.30144531 34.99 32.13804688 35.98 33 37 C33.42518134 37.56581944 33.85036268 38.13163889 34.28842831 38.71460438 C37.94298739 43.39914763 41.09436461 45.40673028 46.72680664 47.11791992 C47.85259628 47.4902047 47.85259628 47.4902047 49.00112915 47.87001038 C51.46431803 48.67861305 53.93648844 49.45457914 56.41015625 50.23046875 C58.14227359 50.7918481 59.87374555 51.35522228 61.604599 51.92048645 C66.15527798 53.40062661 70.71431432 54.85315232 75.27563477 56.30010986 C79.87869378 57.76581015 84.47305784 59.25824306 89.06835938 60.74804688 C101.01753172 64.61419611 112.96990914 68.47117385 124.98022461 72.14379883 C130.56876913 73.85456657 136.11711657 75.66739028 141.65625 77.53125 C142.60584595 77.84904419 143.55544189 78.16683838 144.53381348 78.4942627 C148.52576548 79.83027294 152.51649147 81.16992821 156.50732422 82.50927734 C169.46180346 86.88451543 169.46180346 86.88451543 182.5 91 C193.24833504 94.25047624 203.86281884 97.9369129 214.50732422 101.50927734 C224.39933564 104.8270848 234.28215451 108.13418782 244.27099609 111.14990234 C246.92670933 111.97716961 249.54232192 112.87673565 252.16015625 113.81640625 C263.04962682 117.72466099 273.42920155 120.196018 284.89257812 121.60351562 C290.68308938 122.34234264 296.45679533 123.20217378 302.23202515 124.05099487 C303.70539023 124.26744615 305.17888163 124.4830392 306.65249634 124.69778442 C317.95233107 126.3453504 329.2019419 128.20420457 340.44702148 130.19482422 C348.61199293 131.62640726 356.78879715 132.8654404 365 134 C378.3329494 135.8427883 391.57206853 138.12491021 404.828125 140.44921875 C418.39537075 142.80510748 432.02242076 144.74590084 445.66040039 146.64282227 C446.8127417 146.80451904 447.96508301 146.96621582 449.15234375 147.1328125 C450.6990979 147.34768311 450.6990979 147.34768311 452.27709961 147.56689453 C454.56901999 147.93144817 456.76319969 148.38993318 459 149 C459 149.66 459 150.32 459 151 C458.39341553 151.32572998 457.78683105 151.65145996 457.16186523 151.98706055 C445.96213819 158.00863376 434.79600344 164.07515047 423.75 170.375 C414.64944747 175.5610143 405.44679519 180.53926642 396.1998291 185.4574585 C388.23592665 189.69590831 380.33448633 194.02629895 372.5 198.5 C363.48415511 203.64828836 354.36427194 208.58330129 345.19873047 213.45800781 C337.23519566 217.69627939 329.33417339 222.02657745 321.5 226.5 C312.96925399 231.37030235 304.35567669 236.06803154 295.6875 240.6875 C285.93313043 245.88677763 276.23096602 251.16461722 266.58349609 256.55957031 C261.02287907 259.65989544 255.44870934 262.73579443 249.875 265.8125 C249.25306763 266.15588409 248.63113525 266.49926819 247.99035645 266.85305786 C239.45177215 271.56565595 230.89349824 276.2399424 222.3125 280.875 C215.5854923 284.50871438 208.8689545 288.15811849 202.1875 291.875 C201.50067139 292.25551514 200.81384277 292.63603027 200.10620117 293.02807617 C196.01145902 295.30241982 191.93472442 297.60581784 187.87049866 299.93432617 C185.40699343 301.34301072 182.93791691 302.74175887 180.46817017 304.13946533 C179.24617418 304.83429763 178.02670717 305.53359787 176.80990601 306.23748779 C175.10104867 307.22550959 173.38271314 308.19708233 171.6640625 309.16796875 C170.17060303 310.02297974 170.17060303 310.02297974 168.64697266 310.89526367 C166 312 166 312 163.88085938 312.0925293 C160.84688765 310.330195 159.72670845 307.40161273 158.2421875 304.3515625 C157.72535149 303.33222626 157.72535149 303.33222626 157.19807434 302.29229736 C156.0776687 300.07601213 154.97654921 297.85070833 153.875 295.625 C153.10541175 294.09576656 152.33432916 292.56728426 151.56176758 291.03955078 C150.04408942 288.03620005 148.53216358 285.03007547 147.02490234 282.02148438 C144.6408639 277.27301557 142.18185066 272.56635454 139.6875 267.875 C138.91759456 266.4194687 138.14806299 264.96373958 137.37890625 263.5078125 C136.8068042 262.4254834 136.8068042 262.4254834 136.22314453 261.32128906 C133.84327286 256.80475815 131.48507179 252.27689926 129.125 247.75 C128.37029419 246.30246338 128.37029419 246.30246338 127.6003418 244.82568359 C126.57754678 242.86365365 125.55484219 240.90157657 124.53222656 238.93945312 C122.02292093 234.12555257 119.51138974 229.31281352 117 224.5 C113.97542345 218.70371809 110.95136915 212.90716671 107.9296875 207.109375 C103.32332304 198.27273579 98.71113338 189.4394878 94.0625 180.625 C89.61184375 172.18590576 85.21113858 163.72121938 80.81445312 155.25390625 C77.58299253 149.03400913 74.335061 142.82336057 71.0625 136.625 C67.00377664 128.93619734 62.99730711 121.22089197 59 113.5 C54.5896946 104.98171566 50.15966525 96.47485107 45.68310547 87.99121094 C40.93504343 78.99020045 36.23556463 69.96388973 31.53222656 60.93945312 C29.52057661 57.08026488 27.50746092 53.22184243 25.49414062 49.36352539 C24.50047321 47.45915854 23.50698274 45.55469934 22.51367188 43.65014648 C19.94197888 38.71952342 17.36762456 33.79031589 14.7890625 28.86328125 C4.61973833 9.42183475 4.61973833 9.42183475 0 0 Z " fill="#C75504" transform="translate(0,85)"/>
<path d="M0 0 C6.03757664 1.23613265 11.85087324 2.80366163 17.69287109 4.75878906 C18.51268967 5.02920013 19.33250824 5.29961121 20.1771698 5.57821655 C22.87729726 6.46993149 25.57533919 7.36779105 28.2734375 8.265625 C30.19766866 8.90224666 32.12203897 9.53844788 34.04653931 10.17425537 C39.13086208 11.85508811 44.21349211 13.54098061 49.29571533 15.22814941 C57.27452648 17.8758919 65.2559646 20.51571543 73.23707008 23.15653229 C75.2207215 23.81294921 77.20432208 24.46951982 79.18787193 25.12624359 C93.99217447 30.02734892 108.80817647 34.89147577 123.63671875 39.71875 C124.52733883 40.00883186 125.41795891 40.29891373 126.33556747 40.59778595 C137.20743865 44.13747526 148.08300261 47.66421887 159.00564575 51.04486084 C162.49860665 52.13806878 165.75698816 53.30846078 169 55 C168.76281418 57.73075777 168.51007416 60.45888862 168.25 63.1875 C168.188125 63.91775391 168.12625 64.64800781 168.0625 65.40039062 C167.46116915 71.53897643 166.36101213 77.53865203 165.1796875 83.5859375 C163.00006081 94.74515443 161.16440532 105.94750324 159.39013672 117.17749023 C158.87154445 120.45936825 158.34826408 123.7404731 157.82421875 127.02148438 C156.28050156 136.71437977 154.75185521 146.40626145 153.41113281 156.12963867 C152.69902449 161.10128806 151.85207895 166.05069034 151 171 C144.65611863 170.40251533 139.09037547 168.42504307 133.125 166.25 C126.47978492 163.83693307 119.81969089 161.62158356 113.0234375 159.671875 C102.16730576 156.54585607 91.53323922 152.79339329 80.86572266 149.08398438 C72.12384879 146.04926585 63.39854072 143.04574637 54.5 140.5 C43.81573668 137.44338371 33.35901668 133.73281099 22.86572266 130.08398438 C13.44056806 126.81206674 4.02409992 123.64536242 -5.56738281 120.89558411 C-13.72792142 118.53783975 -21.76259071 115.80873945 -29.81011963 113.09454346 C-34.39971057 111.54690644 -38.99277595 110.00965801 -43.5859375 108.47265625 C-44.48432343 108.17188171 -45.38270935 107.87110718 -46.30831909 107.56121826 C-57.17041142 103.93084014 -68.07500988 100.4363762 -79 97 C-78.12483611 92.47322702 -75.49791579 89.78961534 -72.5 86.4375 C-71.3948148 85.17667333 -70.29065646 83.91494585 -69.1875 82.65234375 C-68.64222656 82.03085449 -68.09695312 81.40936523 -67.53515625 80.76904297 C-65.46961409 78.38880784 -63.48103518 75.95080271 -61.5 73.5 C-58.06791987 69.2720752 -54.55448829 65.1247211 -51 61 C-46.68065728 55.98685227 -42.44902723 50.91462485 -38.27734375 45.77734375 C-35.71795946 42.65603633 -33.11406209 39.5754997 -30.5 36.5 C-27.12716411 32.53096457 -23.78823355 28.53982979 -20.5 24.5 C-16.25904934 19.29034298 -11.92778392 14.16173527 -7.578125 9.04296875 C-5.03552286 6.04192774 -2.51402628 3.02497047 0 0 Z " fill="#DACCB1" transform="translate(118,33)"/>
<path d="M0 0 C4.30274737 1.31398393 8.05448575 2.97783488 11.98046875 5.16796875 C13.1303125 5.80605469 14.28015625 6.44414062 15.46484375 7.1015625 C16.70577171 7.79679907 17.94665596 8.49211366 19.1875 9.1875 C20.48671308 9.91063452 21.78619681 10.63328298 23.0859375 11.35546875 C25.75853345 12.84150355 28.42952878 14.33035347 31.09912109 15.82177734 C35.79819347 18.44684827 40.5039142 21.05986448 45.2097168 23.67285156 C47.41855222 24.89945424 49.62704381 26.12667629 51.83520508 27.35449219 C60.00662291 31.89766513 68.18792239 36.42263405 76.375 40.9375 C76.97600525 41.26894012 77.5770105 41.60038025 78.19622803 41.94186401 C82.4638327 44.29515541 86.731867 46.64766701 91 49 C98.86544098 53.3349484 106.7301138 57.67126553 114.59109497 62.01429749 C118.26968935 64.04617877 121.95079744 66.07342526 125.6335144 68.0978241 C128.08815276 69.44816096 130.54094599 70.80182463 132.99334717 72.15621948 C134.68890165 73.09130473 136.38664796 74.02241225 138.08447266 74.95336914 C156.19781061 84.97031739 156.19781061 84.97031739 161.6875 93.5625 C162.14060547 94.20896484 162.59371094 94.85542969 163.06054688 95.52148438 C166.12682241 100.18013794 166.12682241 100.18013794 165.61328125 103.5 C163.39301012 106.94061386 161.00870507 110.20218947 158.5 113.4375 C153.80656029 119.54686068 153.80656029 119.54686068 149.37109375 125.84375 C142.76823852 135.63396446 135.08339387 142.73194435 125 149 C129.26903252 157.50061738 134.42375668 165.2687658 139.734375 173.140625 C143.52788781 178.76517626 147.22587297 184.44997325 150.90112305 190.15234375 C153.94727046 194.87179148 157.04026088 199.55297482 160.19140625 204.203125 C160.8877417 205.24122314 161.58407715 206.27932129 162.30151367 207.34887695 C163.66083989 209.37370163 165.0317365 211.39081704 166.4152832 213.39916992 C167.33506958 214.77745972 167.33506958 214.77745972 168.2734375 216.18359375 C168.82435059 216.99368896 169.37526367 217.80378418 169.94287109 218.63842773 C171.2559309 221.57173662 170.97889591 222.98318911 170 226 C163.53872613 235.7200033 152.9151446 242.36161847 142 246 C138.5625 246.3125 138.5625 246.3125 135 246 C132.15466553 243.56167532 130.14250353 240.91822605 128.1796875 237.74609375 C127.65342773 236.9051416 127.12716797 236.06418945 126.58496094 235.19775391 C126.02067383 234.28687012 125.45638672 233.37598633 124.875 232.4375 C119.31063635 223.56528195 113.58734808 214.81839094 107.75 206.125 C102.29646706 197.99995841 96.90300651 189.85188045 91.81542969 181.49072266 C90.34441699 179.08195622 89.00496995 177.00496995 87 175 C86.49824753 175.21519791 85.99649506 175.43039581 85.47953796 175.65211487 C80.21822808 177.9030549 74.94345487 180.11988486 69.65991211 182.31811523 C67.69440484 183.14096456 65.73239355 183.9722201 63.77416992 184.81225586 C60.94564806 186.02386245 58.10559835 187.20387759 55.26171875 188.37890625 C53.96883186 188.94442955 53.96883186 188.94442955 52.64982605 189.52137756 C46.08176424 192.18309872 40.93757776 192.123506 34 191 C32.4259495 190.79428146 30.85175809 190.58963394 29.27734375 190.38671875 C27.83000412 190.15819144 26.38336247 189.92519401 24.9375 189.6875 C24.19306641 189.58244141 23.44863281 189.47738281 22.68164062 189.36914062 C17.34743851 188.48413701 17.34743851 188.48413701 15.83016396 186.36989594 C14.74000341 183.2577793 14.47630827 180.35748306 14.19003296 177.06994629 C14.12707082 176.37262437 14.06410869 175.67530246 13.99923861 174.95684958 C13.79035723 172.62093904 13.59320125 170.28418869 13.39599609 167.94726562 C13.24860836 166.27152539 13.10051444 164.59584714 12.95176697 162.92022705 C12.54970927 158.36672027 12.15794667 153.81238055 11.76827574 149.25779915 C11.35847666 144.48500618 10.9402039 139.71295514 10.52310181 134.9407959 C9.82320555 126.91804571 9.12981213 118.89475382 8.44042969 110.87109375 C7.64518826 101.61607869 6.84058508 92.36191545 6.03069055 83.10817194 C5.25048418 74.19189888 4.47620857 65.27512083 3.70485306 56.358078 C3.37728435 52.57196088 3.04781453 48.78601646 2.71680832 45.00019836 C2.32619854 40.52892718 1.94086133 36.05723056 1.55943489 31.58516693 C1.41931298 29.95169172 1.27747596 28.31836249 1.13371468 26.68520355 C0.35074806 17.77659659 -0.20916911 8.9529946 0 0 Z " fill="#D03C2E" transform="translate(526,332)"/>
<path d="M0 0 C5.81976395 0.82279421 11.63827152 1.654037 17.45605469 2.49072266 C19.92531226 2.84556361 22.39472554 3.19932203 24.86425781 3.55224609 C41.10246229 5.87500616 57.29305925 8.33537954 73.44726562 11.19482422 C81.61214213 12.6264892 89.78887702 13.86545144 98 15 C111.3329494 16.8427883 124.57206853 19.12491021 137.828125 21.44921875 C151.39537075 23.80510748 165.02242076 25.74590084 178.66040039 27.64282227 C179.8127417 27.80451904 180.96508301 27.96621582 182.15234375 28.1328125 C183.18351318 28.27605957 184.21468262 28.41930664 185.27709961 28.56689453 C187.56901999 28.93144817 189.76319969 29.38993318 192 30 C192 30.66 192 31.32 192 32 C191.39341553 32.32572998 190.78683105 32.65145996 190.16186523 32.98706055 C178.96213819 39.00863376 167.79600344 45.07515047 156.75 51.375 C147.64944747 56.5610143 138.44679519 61.53926642 129.1998291 66.4574585 C121.23592665 70.69590831 113.33448633 75.02629895 105.5 79.5 C96.48415511 84.64828836 87.36427194 89.58330129 78.19873047 94.45800781 C70.23519566 98.69627939 62.33417339 103.02657745 54.5 107.5 C45.96925399 112.37030235 37.35567669 117.06803154 28.6875 121.6875 C18.93313043 126.88677763 9.23096602 132.16461722 -0.41650391 137.55957031 C-5.97712093 140.65989544 -11.55129066 143.73579443 -17.125 146.8125 C-18.05789856 147.32757614 -18.05789856 147.32757614 -19.00964355 147.85305786 C-27.54822785 152.56565595 -36.10650176 157.2399424 -44.6875 161.875 C-51.41449733 165.50870878 -58.1314147 169.157467 -64.8125 172.875 C-65.49787842 173.25551514 -66.18325684 173.63603027 -66.8894043 174.02807617 C-70.99651052 176.31289467 -75.09235964 178.61673997 -79.18107605 180.93432617 C-81.6653826 182.34060888 -84.15331171 183.74040834 -86.64169312 185.13946533 C-87.87646281 185.83584194 -89.10957442 186.5351671 -90.3409729 187.23748779 C-92.06693889 188.22158736 -93.79897333 189.19502061 -95.53125 190.16796875 C-97.04041992 191.02297974 -97.04041992 191.02297974 -98.58007812 191.89526367 C-99.37865234 192.25982666 -100.17722656 192.62438965 -101 193 C-101.66 192.67 -102.32 192.34 -103 192 C-93.91596097 174.83874166 -84.7952722 157.70241298 -75.46240234 140.67480469 C-72.81497541 135.83253265 -70.1892663 130.97850156 -67.5625 126.125 C-67.02206055 125.12662109 -66.48162109 124.12824219 -65.92480469 123.09960938 C-64.83014739 121.07719904 -63.73558385 119.05473796 -62.64111328 117.03222656 C-59.38832018 111.0221566 -56.13260793 105.01366749 -52.87744141 99.00488281 C-50.15560939 93.98033997 -47.43448771 88.95541506 -44.71484375 83.9296875 C-39.00336822 73.37705652 -33.27876217 62.83187803 -27.52587891 52.30175781 C-24.89883931 47.49056446 -22.28091725 42.67465608 -19.67578125 37.8515625 C-18.84095215 36.3061377 -18.84095215 36.3061377 -17.98925781 34.72949219 C-16.88277684 32.6808591 -15.77664952 30.63203495 -14.67089844 28.58300781 C-11.07884418 21.94328244 -7.42327241 15.34387026 -3.6262207 8.81884766 C-1.9454087 5.88983601 -0.72615886 3.28990797 0 0 Z " fill="#D46B27" transform="translate(267,204)"/>
<path d="M0 0 C1.84398376 0.27350533 1.84398376 0.27350533 3.72521973 0.55253601 C7.79420393 1.15912561 11.8615624 1.77565494 15.9284668 2.39599609 C16.62873985 2.50263942 17.3290129 2.60928275 18.05050635 2.7191577 C24.70726721 3.73331103 31.36325764 4.75238291 38.01745319 5.78324318 C45.65419002 6.96605377 53.29233129 8.13565719 60.93701172 9.26611328 C94.61447729 14.25341216 127.09742899 19.76058479 159.16061401 31.68048096 C165.83406714 34.15178861 172.61189792 36.29680563 179.38549805 38.47412109 C181.77450214 39.25613533 184.16294048 40.03988024 186.55078125 40.82543945 C194.13447477 43.31543444 201.7188829 45.80324612 209.3034668 48.29052734 C209.94537901 48.50104548 210.58729122 48.71156361 211.24865532 48.92846107 C223.74328345 53.02605839 236.23909973 57.12001336 248.73773193 61.2053833 C250.79404713 61.87765787 252.85024471 62.55029232 254.90631104 63.22332764 C256.83026467 63.85305294 258.75439739 64.48223142 260.6787262 65.11080933 C262.48075008 65.69961426 264.28231239 66.28983411 266.08335876 66.88162231 C270.13599932 68.20710106 274.19189651 69.4927907 278.28759766 70.67919922 C279.02153244 70.89524307 279.75546722 71.11128693 280.51164246 71.33387756 C282.45280108 71.9003056 284.39894135 72.44958588 286.34545898 72.99731445 C292.00823861 75.2786572 295.04850635 79.48213574 298.56518555 84.29443359 C300.05674758 86.13463842 301.55688885 87.96791993 303.06518555 89.79443359 C303.79737305 90.70193359 304.52956055 91.60943359 305.28393555 92.54443359 C308.33165556 96.21839744 311.55549889 99.71462981 314.81518555 103.20068359 C316.56518555 105.29443359 316.56518555 105.29443359 317.56518555 108.29443359 C295.20234173 105.3031097 272.89173429 101.98787426 250.58930683 98.57724762 C244.10518107 97.58607847 237.61986608 96.60534291 231.13037109 95.64990234 C203.38306293 91.55737652 176.44233501 87.33942739 149.98983765 77.85577393 C145.04462195 76.09278046 140.05839821 74.46183779 135.06640625 72.83691406 C134.1496194 72.53827265 133.23283255 72.23963123 132.28826427 71.93194008 C130.3993812 71.31674628 128.51045929 70.70167169 126.62150002 70.08671188 C121.823652 68.51997767 117.03228876 66.93372685 112.2409668 65.34716797 C111.27975575 65.02901815 110.31854471 64.71086834 109.32820606 64.38307762 C107.38017183 63.73824197 105.43216713 63.09331709 103.48419189 62.44830322 C98.6509381 60.84820061 93.81707798 59.249933 88.9831543 57.65185547 C88.02822586 57.33612139 87.07329742 57.02038731 86.08943176 56.69508553 C78.47032728 54.17650688 70.84910949 51.66436632 63.22721863 49.15423393 C57.25834166 47.18702977 51.29419229 45.20607115 45.33248901 43.21723843 C41.32896733 41.88373081 37.3226669 40.55871878 33.31573486 39.23549843 C31.41260036 38.60491446 29.51067854 37.97065763 27.61004639 37.33257103 C24.99138427 36.45391291 22.36878712 35.58816605 19.74487305 34.7253418 C18.97111328 34.46220751 18.19735352 34.19907322 17.40014648 33.92796516 C13.71751631 32.73153305 11.23391317 31.92677004 7.56518555 33.29443359 C5.70242363 35.2129317 4.0430852 37.09246122 2.37768555 39.16943359 C1.89356201 39.75732666 1.40943848 40.34521973 0.91064453 40.95092773 C-0.54709092 42.72478127 -1.99213227 44.50832812 -3.43481445 46.29443359 C-4.91337383 48.10742903 -6.3924958 49.91996587 -7.87231445 51.73193359 C-8.59290039 52.61751953 -9.31348633 53.50310547 -10.0559082 54.41552734 C-13.31337667 58.35765257 -16.6531354 62.22652307 -19.9909668 66.10058594 C-23.78644812 70.51475126 -27.48759358 74.99776558 -31.1574707 79.51708984 C-34.1790139 83.20202503 -37.26517396 86.83011681 -40.35131836 90.4609375 C-43.23039289 93.85416834 -46.06692937 97.27720079 -48.87231445 100.73193359 C-52.87838281 105.66192402 -57.00416446 110.48027328 -61.18652344 115.26098633 C-64.52814541 119.11523391 -67.52186176 123.1057352 -70.43481445 127.29443359 C-73.95365491 124.63697595 -76.7121953 121.94370131 -79.43481445 118.48193359 C-83.14861544 113.84740657 -86.96707702 109.3311498 -90.87231445 104.85693359 C-95.02187959 100.08605946 -99.16623722 95.31164155 -103.24731445 90.48193359 C-104.05813477 89.52673828 -104.86895508 88.57154297 -105.7043457 87.58740234 C-107.43481445 85.29443359 -107.43481445 85.29443359 -107.43481445 83.29443359 C-108.09481445 83.29443359 -108.75481445 83.29443359 -109.43481445 83.29443359 C-107.84065943 79.38234051 -105.29588114 76.92225274 -102.30981445 73.98193359 C-101.39973633 73.07830078 -100.4896582 72.17466797 -99.55200195 71.24365234 C-96.62325141 68.42348081 -93.56199504 65.76862213 -90.49194336 63.10424805 C-87.14878939 60.16301847 -83.92013149 57.10319854 -80.68481445 54.04443359 C-74.99374541 48.68568975 -69.26577997 43.37413481 -63.4934082 38.10302734 C-59.9501858 34.85887021 -56.4431764 31.57619262 -52.93481445 28.29443359 C-47.46062277 23.17489029 -41.9705814 18.07559885 -36.41137695 13.04833984 C-34.24215307 11.0699206 -32.1541468 9.02777122 -30.08325195 6.94677734 C-29.51622559 6.39006348 -28.94919922 5.83334961 -28.36499023 5.25976562 C-27.27704846 4.18952938 -26.20387911 3.10397768 -25.14916992 2.00097656 C-18.3935551 -4.56255616 -8.47974849 -1.28874849 0 0 Z " fill="#E5B835" transform="translate(109.434814453125,1.70556640625)"/>
<path d="M0 0 C10.16402074 4.88286047 20.01262713 10.20487021 29.80297852 15.79760742 C37.14286176 19.97946038 44.54970528 24.01857579 52 28 C61.22626398 32.93445485 70.36595728 37.99700394 79.45703125 43.17578125 C86.25762833 47.04039642 93.11211619 50.79345057 100 54.5 C109.91686776 59.83848922 119.73513634 65.33520712 129.52734375 70.8984375 C137.31924606 75.32367344 145.15861183 79.66325224 153 84 C153 84.66 153 85.32 153 86 C152.0934668 86.16081055 151.18693359 86.32162109 150.25292969 86.48730469 C146.82969999 87.09900084 143.40812576 87.71877786 139.98730469 88.34375 C138.51782233 88.61057875 137.04778051 88.87434808 135.57714844 89.13476562 C120.75489766 91.76354134 108.50460627 95.82863095 95.4375 103.5625 C94.21381915 104.27577508 92.98952776 104.98800372 91.76464844 105.69921875 C89.32455427 107.11812547 86.88799099 108.54279067 84.45458984 109.97314453 C80.40275665 112.35375308 76.33279137 114.7025921 72.26196289 117.05053711 C68.8372269 119.02669199 65.41841762 121.01293951 62 123 C59.75553987 120.92841308 58.32925293 119.02414889 56.98217773 116.2890625 C56.6142662 115.54978516 56.24635468 114.81050781 55.86729431 114.04882812 C55.47667313 113.24896484 55.08605194 112.44910156 54.68359375 111.625 C54.05965477 110.36719727 54.05965477 110.36719727 53.42311096 109.08398438 C52.08886139 106.39210438 50.76273575 103.69632742 49.4375 101 C47.71031067 97.49837202 45.979515 93.99854697 44.24609375 90.5 C43.58930634 89.17367554 43.58930634 89.17367554 42.91925049 87.82055664 C40.12099774 82.19186217 37.24272683 76.61309353 34.29296875 71.0625 C27.95481941 59.12323807 21.90711964 47.03730639 15.85546875 34.95117188 C14.18421579 31.61425577 12.50549853 28.28114914 10.8252697 24.94874573 C9.52077002 22.35830049 8.22159062 19.76521461 6.92389297 17.1713562 C6.30628688 15.93916325 5.68668709 14.70796743 5.06502914 13.47781372 C4.20553061 11.77580006 3.35426665 10.06963548 2.50341797 8.36328125 C2.01839813 7.39688721 1.5333783 6.43049316 1.03366089 5.43481445 C0 3 0 3 0 0 Z " fill="#D56137" transform="translate(527,332)"/>
<path d="M0 0 C4.28244137 1.57561522 6.68594057 4.83770502 9.5 8.25 C10.55813253 9.51340726 11.61674096 10.77641607 12.67578125 12.0390625 C13.49103271 13.01601074 13.49103271 13.01601074 14.32275391 14.01269531 C15.997286 15.99678429 17.70103793 17.95097689 19.41796875 19.8984375 C19.96582031 20.52331055 20.51367188 21.14818359 21.078125 21.79199219 C22.1319039 22.99220032 23.19033767 24.18834121 24.25390625 25.37988281 C28.60628165 30.37629214 28.60628165 30.37629214 29 34 C27.28669969 36.37622039 25.59928363 38.42272152 23.625 40.5625 C22.50154746 41.82327794 21.37916015 43.08500584 20.2578125 44.34765625 C19.6999707 44.96914551 19.14212891 45.59063477 18.56738281 46.23095703 C16.4716776 48.59629659 14.48198196 51.03897813 12.5 53.5 C9.06791987 57.7279248 5.55448829 61.8752789 2 66 C-2.31934272 71.01314773 -6.55097277 76.08537515 -10.72265625 81.22265625 C-13.74419944 84.90759143 -16.83035951 88.53568321 -19.91650391 92.16650391 C-22.79557843 95.55973475 -25.63211492 98.9827672 -28.4375 102.4375 C-32.44356836 107.36749043 -36.56935001 112.18583969 -40.75170898 116.96655273 C-44.09333095 120.82080031 -47.08704731 124.8113016 -50 129 C-53.51884046 126.34254236 -56.27738085 123.64926771 -59 120.1875 C-62.71380099 115.55297298 -66.53226257 111.0367162 -70.4375 106.5625 C-74.58706514 101.79162587 -78.73142277 97.01720796 -82.8125 92.1875 C-83.62332031 91.23230469 -84.43414062 90.27710937 -85.26953125 89.29296875 C-87 87 -87 87 -87 85 C-87.66 85 -88.32 85 -89 85 C-87.40584497 81.08790692 -84.86106668 78.62781914 -81.875 75.6875 C-80.96492188 74.78386719 -80.05484375 73.88023438 -79.1171875 72.94921875 C-76.18843696 70.12904722 -73.12718059 67.47418853 -70.05712891 64.80981445 C-66.71397493 61.86858488 -63.48531704 58.80876495 -60.25 55.75 C-54.55893096 50.39125616 -48.83096552 45.07970121 -43.05859375 39.80859375 C-39.51537135 36.56443661 -36.00836194 33.28175903 -32.5 30 C-27.03146952 24.88575114 -21.5339847 19.80576122 -16.0078125 14.75390625 C-10.65274602 9.85676799 -5.32921619 4.92522722 0 0 Z " fill="#DB9420" transform="translate(89,0)"/>
<path d="M0 0 C2.14513694 3.21770542 3.84212124 6.55994052 5.55664062 10.015625 C5.91150543 10.72681488 6.26637024 11.43800476 6.63198853 12.17074585 C7.40329693 13.71716856 8.17368076 15.26405268 8.94325256 16.81134033 C10.17083214 19.27931653 11.40094279 21.74601634 12.63171387 24.21240234 C15.69551774 30.3533576 18.7550945 36.49641642 21.8145752 42.63952637 C24.38986006 47.81008194 26.96691848 52.97974651 29.54618835 58.14831543 C30.74069596 60.54367648 31.9327278 62.9402577 33.12463379 65.33691406 C37.88610991 74.89117748 42.78486188 84.36424472 47.78488159 93.79585266 C50.8274869 99.54530202 53.73581329 105.35957588 56.625 111.1875 C57.15222656 112.24646484 57.67945313 113.30542969 58.22265625 114.39648438 C59.48370116 116.93003824 60.74283829 119.46451772 62 122 C56.23010084 128.83731835 50.21088501 135.32935836 43.375 141.125 C41.91603988 142.41595865 40.45783705 143.70777324 39 145 C38.42878418 145.48114258 37.85756836 145.96228516 37.26904297 146.45800781 C26.63476181 155.51773709 21.71897571 163.06289329 19.39208984 176.8828125 C18.81538118 179.99689566 17.92210088 182.97196568 17 186 C14.21420776 183.21420776 14.52974188 181.21737233 14.19003296 177.31045532 C14.12707082 176.61484226 14.06410869 175.91922919 13.99923861 175.20253694 C13.78951142 172.86047407 13.5928088 170.51749729 13.39599609 168.17431641 C13.24868332 166.49886457 13.10058824 164.82348136 12.95176697 163.14816284 C12.54892382 158.58633616 12.15747598 154.02359534 11.76827574 149.46058702 C11.35908545 144.68239106 10.94046222 139.90502091 10.52310181 135.12753296 C9.82264833 127.09287604 9.12931686 119.05762907 8.44042969 111.02197266 C7.64568057 101.75218707 6.84103343 92.4833037 6.03069055 83.21486914 C5.25042957 74.28899353 4.47611336 65.36261262 3.70485306 56.43595505 C3.37721835 52.64426188 3.04774705 48.85273506 2.71680832 45.06132889 C2.32616891 40.58187819 1.9408347 36.10200024 1.55943489 31.62175369 C1.41930858 29.98505574 1.27747128 28.34850314 1.13371468 26.71212006 C0.35155102 17.79463096 -0.20948922 8.96175357 0 0 Z " fill="#CA4723" transform="translate(526,332)"/>
<path d="M0 0 C0.66 0 1.32 0 2 0 C3.26953125 1.44140625 3.26953125 1.44140625 4.8125 3.5625 C8.12601847 7.95067311 11.63425421 12.11190345 15.25 16.25 C16.38293364 17.54937355 17.51574553 18.84885327 18.6484375 20.1484375 C19.20885742 20.79135742 19.76927734 21.43427734 20.34667969 22.09667969 C22.87476403 25.00703786 25.37998618 27.93627165 27.875 30.875 C29.10863281 32.32519531 29.10863281 32.32519531 30.3671875 33.8046875 C31.24496594 34.86964805 32.12255503 35.93476468 33 37 C33.54873779 37.63945557 34.09747559 38.27891113 34.6628418 38.93774414 C39.69587534 45.02781836 42.87229317 51.4924361 46.0625 58.6875 C46.61984271 59.91938625 47.17855166 61.15065515 47.73852539 62.38134766 C48.90864613 64.95485681 50.0736001 67.53061299 51.23535156 70.10791016 C53.79300701 75.76664777 56.42985946 81.38827249 59.06466675 87.01138306 C60.53438122 90.14942206 61.99925017 93.28972237 63.46484375 96.4296875 C64.0545002 97.69239427 64.64418118 98.95508959 65.23388672 100.21777344 C67.86557029 105.85327949 70.4954426 111.48963072 73.12545776 117.12591553 C74.00159616 119.00342046 74.87785508 120.88086909 75.75415039 122.75830078 C78.36199528 128.34567777 80.96932488 133.93329167 83.57365417 139.52230835 C90.38001346 154.12890752 97.21709709 168.7205285 104.08633423 183.29766846 C109.139538 194.02312557 114.15355395 204.76582077 119.13696289 215.52392578 C123.2327399 224.36121893 127.3612879 233.18276675 131.5 242 C136.39428846 252.42857866 141.27327321 262.86404596 146.125 273.3125 C146.64513672 274.43205078 147.16527344 275.55160156 147.70117188 276.70507812 C148.6730427 278.79999968 149.64164617 280.89644116 150.60644531 282.99462891 C151.55783043 285.04640725 152.5267577 287.09011945 153.51074219 289.12646484 C154.21312012 290.60107178 154.21312012 290.60107178 154.9296875 292.10546875 C155.35233887 292.9771167 155.77499023 293.84876465 156.21044922 294.74682617 C157 297 157 297 156 300 C155.71914551 299.4330542 155.43829102 298.8661084 155.14892578 298.28198242 C149.02529104 285.93658574 142.77363991 273.6741882 136.31982422 261.49853516 C133.90386932 256.924935 131.51546366 252.33696002 129.125 247.75 C128.62234619 246.78586182 128.11969238 245.82172363 127.60180664 244.82836914 C126.57850626 242.86545292 125.55531338 240.90248066 124.53222656 238.93945312 C122.02292093 234.12555257 119.51138974 229.31281352 117 224.5 C113.97542345 218.70371809 110.95136915 212.90716671 107.9296875 207.109375 C103.32332304 198.27273579 98.71113338 189.4394878 94.0625 180.625 C89.61184375 172.18590576 85.21113858 163.72121938 80.81445312 155.25390625 C77.58299253 149.03400913 74.335061 142.82336057 71.0625 136.625 C67.00377664 128.93619734 62.99730711 121.22089197 59 113.5 C54.5896946 104.98171566 50.15966525 96.47485107 45.68310547 87.99121094 C40.93504343 78.99020045 36.23556463 69.96388973 31.53222656 60.93945312 C29.52057661 57.08026488 27.50746092 53.22184243 25.49414062 49.36352539 C24.50047321 47.45915854 23.50698274 45.55469934 22.51367188 43.65014648 C19.94197888 38.71952342 17.36762456 33.79031589 14.7890625 28.86328125 C4.61973833 9.42183475 4.61973833 9.42183475 0 0 Z " fill="#D86A04" transform="translate(0,85)"/>
<path d="M0 0 C10.16402074 4.88286047 20.01262713 10.20487021 29.80297852 15.79760742 C37.14286176 19.97946038 44.54970528 24.01857579 52 28 C61.22626398 32.93445485 70.36595728 37.99700394 79.45703125 43.17578125 C86.25762833 47.04039642 93.11211619 50.79345057 100 54.5 C109.91686776 59.83848922 119.73513634 65.33520712 129.52734375 70.8984375 C137.31924606 75.32367344 145.15861183 79.66325224 153 84 C153 84.66 153 85.32 153 86 C148.60833013 86.84058257 144.21581768 87.67657689 139.82250977 88.50854492 C138.33171707 88.79150082 136.84115113 89.07565435 135.35083008 89.36108398 C130.57297496 90.27565162 125.79017935 91.15221678 121 92 C120.05366699 92.17813232 119.10733398 92.35626465 118.13232422 92.53979492 C114.63202192 93.09608389 112.50907648 93.26119767 109.3125 91.62109375 C108.549375 90.90050781 107.78625 90.17992187 107 89.4375 C106.07445312 88.60476563 105.14890625 87.77203125 104.1953125 86.9140625 C103.69032227 86.44774414 103.18533203 85.98142578 102.66503906 85.50097656 C99.50353291 82.65098539 96.17344787 80.00127329 92.875 77.3125 C91.40293347 76.10112557 89.93158825 74.8888741 88.4609375 73.67578125 C84.14134692 70.11631051 79.82078088 66.55802569 75.5 63 C74.08332863 61.83333904 72.66666197 60.66667237 71.25 59.5 C70.54875 58.9225 69.8475 58.345 69.125 57.75 C45.75 38.5 45.75 38.5 43.62426758 36.74926758 C42.2102115 35.58483684 40.79598671 34.42061094 39.3815918 33.2565918 C35.79855892 30.30738807 32.21869816 27.3544757 28.64453125 24.39453125 C21.8348935 18.76020748 15.00494124 13.15787902 8.0625 7.6875 C7.47702393 7.22512939 6.89154785 6.76275879 6.28833008 6.28637695 C3.28635272 3.92544168 3.28635272 3.92544168 0 2 C0 1.34 0 0.68 0 0 Z " fill="#DB6B46" transform="translate(527,332)"/>
<path d="M0 0 C0.33 0 0.66 0 1 0 C1.2316687 1.5919519 1.2316687 1.5919519 1.46801758 3.21606445 C5.42477337 30.39944134 9.40002605 57.58009547 13.38488388 84.75936508 C13.7469718 87.22934315 14.10893216 89.69933988 14.47085571 92.16934204 C14.9375471 95.35433547 15.4045407 98.53928435 15.8717804 101.72419739 C16.3164755 104.75546343 16.7601303 107.78687903 17.20304871 110.81840515 C18.10789957 117.00218365 19.02008238 123.18405937 19.99414062 129.35742188 C20.13781067 130.27610046 20.28148071 131.19477905 20.42950439 132.14129639 C20.68055928 133.73507786 20.93693052 135.32803979 21.2008667 136.91973877 C22.44613634 144.84188195 22.36262664 151.86680546 20.125 159.625 C19.77695312 160.85476563 19.42890625 162.08453125 19.0703125 163.3515625 C18.71710937 164.55554688 18.36390625 165.75953125 18 167 C17.62130614 168.32000036 17.24365842 169.64030142 16.8671875 170.9609375 C16.58101562 171.96382812 16.29484375 172.96671875 16 174 C13.28393203 171.28393203 13.55764401 169.52875628 13.22799683 165.72132874 C13.16911824 165.06992918 13.11023966 164.41852962 13.04957688 163.74739069 C12.85366894 161.55500042 12.67078564 159.36171615 12.48779297 157.16821289 C12.35033374 155.59951163 12.21209066 154.03087889 12.07312012 152.46231079 C11.69715311 148.19185803 11.33256755 143.92050136 10.97020483 139.64887547 C10.58909634 135.17583881 10.19848058 130.70363182 9.80911255 126.23130798 C9.15576993 118.71031233 8.50948864 111.1887359 7.86767578 103.66674805 C7.12718086 94.98886441 6.377136 86.31184943 5.62153137 77.63526922 C4.89397528 69.27959962 4.17186371 60.92346912 3.45267105 52.56707573 C3.14715812 49.01739951 2.84002498 45.4678691 2.5316124 41.91844368 C2.1676277 37.72541257 1.80851924 33.53199006 1.45303345 29.33823013 C1.3224261 27.80594248 1.19025715 26.27378692 1.05633926 24.74178505 C0.33550855 16.48262262 -0.19827235 8.29652154 0 0 Z " fill="#C72E0A" transform="translate(527,344)"/>
<path d="M0 0 C0.66 0.33 1.32 0.66 2 1 C1.00467512 8.26965137 -4.2421514 12.79462346 -9.8125 17.1875 C-17.25528328 22.50792711 -24.7562562 26.33613614 -34 26 C-34.66 25.67 -35.32 25.34 -36 25 C-36 21.76947546 -35.61455048 19.67000991 -33.3984375 17.25390625 C-31.30925051 15.44300865 -29.1614217 13.72366541 -27 12 C-26.46246094 11.48308594 -25.92492187 10.96617187 -25.37109375 10.43359375 C-18.55640706 3.89217771 -9.52295785 -0.67030529 0 0 Z " fill="#D23335" transform="translate(695,552)"/>
<path d="M0 0 C0.99 0.495 0.99 0.495 2 1 C1.01 1.495 1.01 1.495 0 2 C0 1.34 0 0.68 0 0 Z M-2 2 C-1.34 2.33 -0.68 2.66 0 3 C-1.0347933 4.08990063 -2.07827361 5.17155463 -3.125 6.25 C-3.70507812 6.85328125 -4.28515625 7.4565625 -4.8828125 8.078125 C-7 10 -7 10 -9.82421875 11.84375 C-14.13177381 14.76843683 -17.69174965 18.30182145 -21.40820312 21.9296875 C-25.68403633 26 -25.68403633 26 -29 26 C-24.83787794 19.52558791 -20.80777848 13.93338312 -14 10 C-13.34 10 -12.68 10 -12 10 C-12 9.34 -12 8.68 -12 8 C-11.01 8 -10.02 8 -9 8 C-9 7.34 -9 6.68 -9 6 C-3.7265625 2.77734375 -3.7265625 2.77734375 -2 2 Z " fill="#CC2919" transform="translate(607,468)"/>
<path d="M0 0 C0.99 0.33 1.98 0.66 3 1 C-11.44893112 12 -11.44893112 12 -18 12 C-14.29963409 8.93022079 -10.44855292 6.23114548 -6.375 3.6875 C-5.80265625 3.31560547 -5.2303125 2.94371094 -4.640625 2.56054688 C-3.1420552 1.62481201 -1.57350673 0.8033603 0 0 Z " fill="#D02E11" transform="translate(601,489)"/>
</svg>
