<?xml version="1.0" encoding="UTF-8"?>
<svg version="1.1" xmlns="http://www.w3.org/2000/svg" width="65" height="107">
<path d="M0 0 C14.77324168 4.28900565 25.6209878 17.19184489 33.01318359 30.11376953 C41.64221385 46.60755671 42.63382613 66.25666587 37.1328125 83.89453125 C34.11459256 92.16861695 30.25037629 99.86226051 22.3125 104.375 C13.25398612 108.34561994 4.09122968 107.3302098 -5 104 C-12.05247006 100.75586377 -17.54356421 96.39164644 -22 90 C-23.64654592 85.06036224 -24.30633868 79.70242583 -21.9765625 74.8828125 C-19.22062914 71.09150086 -15.92573902 67.9355596 -12.5625 64.6875 C-2.25050359 54.53174596 3.01593981 42.80984636 3.41821289 28.35571289 C3.48729686 18.57464654 2.44468398 9.47315042 0 0 Z " fill="#E53F34" transform="translate(24,0)"/>
<path d="M0 0 C0.33 0 0.66 0 1 0 C1.03867187 1.06927734 1.03867187 1.06927734 1.078125 2.16015625 C1.51123707 10.86467053 1.51123707 10.86467053 6 18 C8.77907086 19.73897481 11.58073877 21.22887802 14.5390625 22.640625 C17 24 17 24 19 27 C18.92197514 31.2133427 18.37083036 33.47184767 15.9375 36.9375 C12.78771171 39.14905348 10.82071191 39.62864965 6.98046875 39.34765625 C1.13244694 38.32108043 -2.10343406 35.15423878 -5.80078125 30.81640625 C-8.67705498 26.45983529 -8.6763907 21.03204948 -8 16 C-6.12912413 10.24290322 -3.94888004 4.65680252 0 0 Z " fill="#F2911D" transform="translate(28,60)"/>
<path d="M0 0 C14.77324168 4.28900565 25.6209878 17.19184489 33.01318359 30.11376953 C41.64221385 46.60755671 42.63382613 66.25666587 37.1328125 83.89453125 C34.11459256 92.16861695 30.25037629 99.86226051 22.3125 104.375 C13.25398612 108.34561994 4.09122968 107.3302098 -5 104 C-12.05247006 100.75586377 -17.54356421 96.39164644 -22 90 C-23.64654592 85.06036224 -24.30633868 79.70242583 -21.9765625 74.8828125 C-19.22062914 71.09150086 -15.92573902 67.9355596 -12.5625 64.6875 C-2.25050359 54.53174596 3.01593981 42.80984636 3.41821289 28.35571289 C3.48729686 18.57464654 2.44468398 9.47315042 0 0 Z M3 3 C3.144375 4.175625 3.28875 5.35125 3.4375 6.5625 C3.51871094 7.22378906 3.59992187 7.88507812 3.68359375 8.56640625 C3.93309485 10.48540851 4.21627846 12.40003156 4.51171875 14.3125 C6.56379249 29.80976087 4.43550456 44.38679917 -4.19921875 57.70703125 C-7.02263744 61.30214355 -10.29925384 64.38715854 -13.5859375 67.5546875 C-17.98116305 72.00680917 -21.42516198 76.31742258 -22.75 82.5 C-21.19384977 89.76203439 -17.03700349 94.55047893 -11.125 98.875 C-1.97240075 104.73647143 6.50269342 106.75665473 17.4375 104.49609375 C24.70852641 102.08618916 29.92404274 95.95120042 33.4140625 89.30859375 C40.65189832 72.1479185 40.97125227 54.49017779 34.26855469 37.10253906 C28.22497198 22.74237839 17.68651493 9.18379576 3 3 Z " fill="#3A2222" transform="translate(24,0)"/>
</svg>
